# xmcd
#
# Track frame offsets: 
#        150
#        13931
#        28173
#        42017
#        53521
#        68838
#        78249
#        90815
#        102826
#        119867
#        135456
#        147742
#
# Disc length: 2142 seconds
#
# Revision: 0
# Processed by: cddbd v1.5.2PL0 Copyright (c) Steve Scherf et al.
# Submitted via: ExactAudioCopyFreeDBPlugin 1.0
#
DISCID=9d085c0c
DTITLE=Chet O'Connell - Time Alone
DYEAR=2008
DGENRE=Acoustic
TTITLE0=Time Alone
TTITLE1=Seasons Change
TTITLE2=A Mother's Love
TTITLE3=Indian Summer
TTITLE4=Norfolk Tide
TTITLE5=Czardas
TTITLE6=Midnight Rambler
TTITLE7=The Traveller
TTITLE8=Afternoon Lullaby
TTITLE9=Girl of Mine
TTITLE10=Happy Again
TTITLE11=Loop and Groove
EXTD=
EXTT0=
EXTT1=
EXTT2=
EXTT3=
EXTT4=
EXTT5=
EXTT6=
EXTT7=
EXTT8=
EXTT9=
EXTT10=
EXTT11=
PLAYORDER=
